<svg width="200" height="42" viewBox="0 0 200 42" fill="none" xmlns="http://www.w3.org/2000/svg">
<g clip-path="url(#clip0_2062_4435)">
<path d="M83.9363 19.1278H80.0934V13.9663H75.5427V27.9326H80.0934V22.9736H83.9363V27.9326H88.4871V13.9663H83.9363V19.1278ZM125.702 19.1278H121.859V13.9663H117.309V27.9326H121.859V22.9736H125.702V27.9326H130.253V13.9663H125.702V19.1278ZM194.469 18.1157H192.346V14.0675H187.795V28.0338H194.469C197.402 28.0338 199.728 26.4145 199.728 23.5808V22.5687C199.829 19.6338 197.402 18.1157 194.469 18.1157ZM194.065 24.4916H192.346V21.4555H193.863C195.177 21.4555 195.379 22.3663 195.379 22.9736C195.379 24.2892 194.368 24.4916 194.065 24.4916ZM165.446 22.6699H170.502V19.3302H165.446V17.6097H171.008V13.9663H160.996V27.9326H171.412V24.2892H165.446V22.6699ZM159.883 13.9663H155.029L152.602 19.229H151.49V13.9663H146.939V27.9326H151.49V22.9736H152.602L155.029 27.9326H160.187L156.344 20.8483L159.883 13.9663ZM97.4875 13.7639H95.2626C92.3299 13.7639 90.004 15.8892 90.004 19.0266V22.9736C90.004 26.2121 92.4311 28.2362 95.2626 28.2362H97.4875C100.42 28.2362 102.746 26.1109 102.746 22.9736V19.0266C102.746 15.6868 100.42 13.7639 97.4875 13.7639ZM98.1954 23.2772C98.1954 24.188 97.4875 24.9977 96.4762 24.9977H96.0717C95.1615 24.9977 94.3525 24.188 94.3525 23.2772V18.723C94.3525 17.8121 95.0604 17.0025 96.0717 17.0025H96.4762C97.3863 17.0025 98.1954 17.8121 98.1954 18.723V23.2772ZM174.749 21.3543C174.749 23.4796 174.143 23.7832 173.334 24.188C173.03 24.3904 172.019 24.2892 172.019 24.2892V27.9326H173.738C177.48 27.9326 178.896 25.7061 178.997 20.747C178.997 19.6338 178.997 18.5205 178.997 17.5085H181.525V27.8314H186.076V13.9663H174.749V21.3543ZM110.937 13.9663H104.263V27.9326H108.814V24.4916H110.937C113.87 24.4916 116.196 22.8723 116.196 20.0386V18.4193C116.297 15.5856 113.87 13.9663 110.937 13.9663ZM111.848 19.6338C111.848 20.1398 111.544 21.1519 110.331 21.1519H108.814V17.4073H110.533C110.937 17.4073 111.949 17.8121 111.949 18.8242V19.6338H111.848ZM136.523 21.0507V13.9663H132.276V27.9326H136.22L140.871 20.8483V27.9326H145.119V13.9663H141.175L136.523 21.0507Z" fill="#5A5A59"/>
<path d="M21.0347 27.8313L41.9682 42V14.1687L21.0347 0V27.8313Z" fill="#0061A3"/>
<path d="M21.0346 0C9.40491 0 0 9.41205 0 21.0506C0 32.6892 9.40491 42.1012 21.0346 42.1012V0Z" fill="#0089C5"/>
<path d="M41.9681 42C53.5979 42 63.0028 32.588 63.0028 20.9494C63.0028 9.31084 53.5979 0 41.9681 0V42Z" fill="#0089C5"/>
</g>
<defs>
<clipPath id="clip0_2062_4435">
<rect width="199.829" height="42" fill="white"/>
</clipPath>
</defs>
</svg>
